<svg width="34" height="31" viewBox="0 0 34 31" fill="none" xmlns="http://www.w3.org/2000/svg">
<g clip-path="url(#clip0_184_351)">
<path d="M0.5 20.1575L4.61387 19.438L6.42303 29.7805L2.30916 30.5L0.5 20.1575Z" fill="#181618"/>
<path d="M8.05357 27.6304C8.76932 27.0435 9.68528 26.7581 10.6078 26.8348L19.0928 27.4757H19.1197C20.7301 27.4651 22.2967 26.9493 23.5984 26.0015L33.2773 16.5141C32.5023 15.9665 31.46 15.9927 30.7137 16.5787L30.7025 16.5874L25.885 20.1895C26.0054 20.4758 26.0931 20.7743 26.147 21.0802C26.2 21.384 25.9967 21.6737 25.6926 21.7267L17.8756 23.0943C17.8435 23.0996 17.811 23.1024 17.7786 23.1021C17.4879 23.103 17.245 22.8809 17.2201 22.5912C17.1951 22.3018 17.3963 22.0414 17.6829 21.9924L24.8986 20.7303C24.3849 19.3659 22.9744 18.5594 21.5382 18.8089L16.7828 19.6406C15.8472 19.8031 14.887 19.7529 13.9735 19.4944L13.4414 19.3428C10.8146 18.589 7.98559 19.335 6.07227 21.2867L7.29012 28.2485L8.05357 27.6304Z" fill="#181618"/>
<path d="M18.5683 15.451C22.6971 15.451 26.0438 12.1044 26.0438 7.97552C26.0438 3.84699 22.6971 0.5 18.5683 0.5C14.4398 0.5 11.0928 3.84699 11.0928 7.97552C11.0975 12.1025 14.4416 15.4467 18.5683 15.451ZM17.5273 3.95552C17.5273 3.64677 17.7777 3.39665 18.0861 3.39665C18.3949 3.39665 18.645 3.64677 18.645 3.95552V8.15484H21.6951C22.0035 8.15484 22.254 8.40528 22.254 8.71371C22.254 9.02247 22.0035 9.27259 21.6951 9.27259H18.1217C17.8129 9.27259 17.5273 8.95448 17.5273 8.64573V3.95552Z" fill="#181618"/>
</g>
<defs>
<clipPath id="clip0_184_351">
<rect width="33" height="30" fill="white" transform="translate(0.5 0.5)"/>
</clipPath>
</defs>
</svg>
