<svg width="32" height="31" viewBox="0 0 32 31" fill="none" xmlns="http://www.w3.org/2000/svg">
<g clip-path="url(#clip0_184_335)">
<path d="M28.4136 16.888L22.1864 22.1341C22.2339 22.3266 22.2591 22.5277 22.2591 22.7346C22.2591 24.1168 21.1346 25.2413 19.7524 25.2413H11.4511C11.1019 25.2413 10.8189 24.9583 10.8189 24.6091C10.8189 24.26 11.1019 23.9769 11.4511 23.9769H19.7524C20.4374 23.9769 20.9947 23.4196 20.9947 22.7346C20.9947 22.6024 20.9739 22.4749 20.9354 22.3553C20.8643 22.2696 20.8197 22.1707 20.8005 22.0684C20.5798 21.7224 20.1924 21.4924 19.7524 21.4924H15.7737C14.8896 21.4924 14.0583 21.1481 13.4331 20.5229L13.2516 20.3413C12.6124 19.7022 11.7625 19.3501 10.8584 19.3501H7.66732C6.4801 19.3501 5.3638 19.8112 4.5229 20.6489L0.543167 24.8637C0.505695 24.9034 0.499062 24.9476 0.500099 24.9777C0.501098 25.0077 0.510749 25.0513 0.5508 25.0883L6.36799 30.4581C6.43058 30.5157 6.52674 30.5138 6.58694 30.4537L6.73855 30.302C7.36375 29.6768 8.19496 29.3325 9.07912 29.3325H18.911C19.4574 29.3325 19.9711 29.1198 20.3575 28.7334L30.2273 18.8635C30.4808 18.6101 30.6204 18.273 30.6204 17.9146C30.6204 17.5561 30.4808 17.219 30.2273 16.9655C29.7306 16.4687 28.9507 16.4356 28.4136 16.888Z" fill="#181618"/>
<path d="M18.4141 17.9804C23.2334 17.9804 27.1542 14.0595 27.1542 9.24016C27.1542 4.42081 23.2334 0.5 18.4141 0.5C13.5947 0.5 9.67383 4.42081 9.67383 9.24016C9.67383 14.0595 13.5947 17.9804 18.4141 17.9804ZM14.8362 11.6503C14.8362 11.3011 15.1193 11.018 15.4685 11.018C15.8176 11.018 16.1007 11.3011 16.1007 11.6503V11.9181C16.1007 12.603 16.658 13.1603 17.3429 13.1603H19.4852C20.1702 13.1603 20.7275 12.603 20.7275 11.9181V11.1147C20.7275 10.4297 20.1702 9.87239 19.4852 9.87239H17.0751C15.8406 9.87239 14.8362 8.86803 14.8362 7.63354V6.56234C14.8362 5.18014 15.9607 4.05569 17.3429 4.05569H17.7819V3.34892C17.7819 2.99978 18.0649 2.7167 18.4141 2.7167C18.7633 2.7167 19.0463 2.99978 19.0463 3.34892V4.05569H19.4852C20.8674 4.05569 21.9919 5.18014 21.9919 6.56234V6.83014C21.9919 7.17928 21.7089 7.46236 21.3597 7.46236C21.0105 7.46236 20.7275 7.17928 20.7275 6.83014V6.56234C20.7275 5.87741 20.1702 5.32014 19.4852 5.32014H17.3429C16.658 5.32014 16.1007 5.87742 16.1007 6.56234V7.63353C16.1007 8.17082 16.5378 8.60794 17.0751 8.60794H19.4852C20.8674 8.60794 21.9919 9.73246 21.9919 11.1147V11.9181C21.9919 13.3003 20.8674 14.4247 19.4852 14.4247H19.0463V15.1314C19.0463 15.4805 18.7633 15.7636 18.4141 15.7636C18.0649 15.7636 17.7819 15.4805 17.7819 15.1314V14.4247H17.3429C15.9607 14.4247 14.8362 13.3003 14.8362 11.9181V11.6503Z" fill="#181618"/>
</g>
<defs>
<clipPath id="clip0_184_335">
<rect width="31" height="30" fill="white" transform="translate(0.5 0.5)"/>
</clipPath>
</defs>
</svg>
