<svg width="31" height="31" viewBox="0 0 31 31" fill="none" xmlns="http://www.w3.org/2000/svg">
<g clip-path="url(#clip0_184_340)">
<path d="M28.3321 2.84375C27.2013 2.84375 26.2813 3.76373 26.2813 4.89453V10.9335C26.6744 11.1164 27.0428 11.3699 27.3672 11.6942C28.8548 13.1815 28.8548 15.5931 27.3674 17.0805L24.0467 20.4013C23.7034 20.7445 23.147 20.7445 22.8037 20.4013C22.4605 20.058 22.4605 19.5016 22.8037 19.1583L26.1244 15.8376C26.9253 15.0367 26.9253 13.7382 26.1243 12.9373C25.3234 12.1365 24.025 12.1366 23.2242 12.9374L18.2938 17.8681C17.0212 19.1408 16.3203 20.8329 16.3203 22.6327L16.3204 30.5H23.6446C24.13 30.5 24.5235 30.1065 24.5235 29.6211V26.4631C24.5235 25.9843 24.6923 25.518 24.9988 25.1502L28.8211 20.5635C29.8282 19.3549 30.3829 17.8229 30.3829 16.2497V4.89453C30.3829 3.76373 29.4629 2.84375 28.3321 2.84375Z" fill="#181618"/>
<path d="M12.5891 17.8681L7.65864 12.9374C6.85784 12.1366 5.55946 12.1365 4.75854 12.9373C3.95756 13.7382 3.9575 15.0367 4.75842 15.8376L8.07911 19.1583C8.42235 19.5016 8.42235 20.058 8.07911 20.4013C7.73587 20.7445 7.1794 20.7445 6.83616 20.4013L3.51541 17.0805C2.02801 15.5931 2.02807 13.1815 3.51565 11.6942C3.84002 11.3699 4.2084 11.1163 4.60151 10.9335L4.60157 4.89453C4.60157 3.76373 3.68158 2.84375 2.55078 2.84375C1.41998 2.84375 0.5 3.76373 0.5 4.89453V16.2497C0.5 17.8229 1.05465 19.3549 2.06176 20.5634L5.88401 25.1501C6.19051 25.518 6.35932 25.9842 6.35932 26.463V29.6211C6.35932 30.1065 6.75284 30.5 7.23823 30.5H14.5625V22.6326C14.5625 20.8329 13.8617 19.1408 12.5891 17.8681Z" fill="#181618"/>
<path d="M21.6508 1.80726C19.9451 0.101599 17.1926 0.0650373 15.4419 1.69763C13.6914 0.0650373 10.9388 0.101599 9.23311 1.80726C7.49 3.55031 7.49 6.38655 9.23311 8.12959L14.8204 13.7169C15.1637 14.0602 15.7201 14.0602 16.0634 13.7169L21.6507 8.12959C23.3938 6.38655 23.3938 3.55031 21.6508 1.80726Z" fill="#181618"/>
</g>
<defs>
<clipPath id="clip0_184_340">
<rect width="30" height="30" fill="white" transform="translate(0.5 0.5)"/>
</clipPath>
</defs>
</svg>
